# xmcd
#
# Track frame offsets: 
#        150
#        12578
#        26422
#        38266
#        54637
#        71083
#        82513
#        90178
#        102995
#        116807
#        129411
#        143328
#        154224
#        169140
#        185229
#        199251
#        221939
#        233401
#        245830
#        259045
#
# Disc length: 3657 seconds
#
# Revision: 0
# Processed by: cddbd v1.5.2PL0 Copyright (c) Steve Scherf et al.
# Submitted via: ExactAudioCopy v0.99pb5
#
DISCID=0d0e4714
DTITLE=Johnny Hill - Advent and Weihnachten mit Johnny Hill [CD 1 von 2)
DYEAR=2006
DGENRE=Christmas
TTITLE0=Sag Mama warum hat der Weihnachtsmann Papa's neue Schuhe an?
TTITLE1=Weihnachtsgedanken
TTITLE2=In uns'rer Stadt ist Weihnachtsmarkt
TTITLE3=Professor Einstein
TTITLE4=Still ist die Nacht Heut in Hamburg
TTITLE5=Weisse Weihnacht in der Heimat
TTITLE6=Leise rieselt der Schnee
TTITLE7=Weihnachten auf hoher See
TTITLE8=Zu Hause brennt ein Lichterbaum
TTITLE9=Alle Jahre wieder
TTITLE10=Süsser die Glocken nie klingen
TTITLE11=Am Weihnachtsbaum die Lichter brennen
TTITLE12=Kerzen, Tannenduft und Engel
TTITLE13=Weihnachten ist
TTITLE14=Ich hätt' so gern das Christkind gesehen
TTITLE15=Gibt es einen Weihnachtsmann?
TTITLE16=Oh Tannenbaum
TTITLE17=Es ist ein Ros entsprungen
TTITLE18=Oh du fröhliche
TTITLE19=Stille Nacht heilige Nacht
EXTD=
EXTT0=
EXTT1=
EXTT2=
EXTT3=
EXTT4=
EXTT5=
EXTT6=
EXTT7=
EXTT8=
EXTT9=
EXTT10=
EXTT11=
EXTT12=
EXTT13=
EXTT14=
EXTT15=
EXTT16=
EXTT17=
EXTT18=
EXTT19=
PLAYORDER=
